<svg width="800" height="520" viewBox="0 0 800 520" fill="none" xmlns="http://www.w3.org/2000/svg">
  <rect width="800" height="520" rx="36" fill="#FBF6EA"/>
  <rect x="28" y="28" width="744" height="464" rx="28" fill="#FFF9EF" stroke="#E3D4BA"/>
  <rect x="62" y="62" width="676" height="396" rx="28" fill="#111827"/>
  <rect x="92" y="96" width="180" height="328" rx="22" fill="#1F2937"/>
  <path d="M122 144H236" stroke="#A78BFA" stroke-width="10" stroke-linecap="round"/>
  <path d="M122 182H220" stroke="#64748B" stroke-width="10" stroke-linecap="round"/>
  <path d="M122 220H210" stroke="#64748B" stroke-width="10" stroke-linecap="round"/>
  <rect x="114" y="270" width="136" height="54" rx="18" fill="#7C3AED"/>
  <rect x="114" y="340" width="136" height="54" rx="18" fill="#0F172A" stroke="#334155"/>
  <rect x="304" y="96" width="332" height="150" rx="24" fill="#0F172A" stroke="#334155"/>
  <path d="M338 204C374 152 412 158 446 188C480 218 526 210 570 146C586 122 604 118 620 132" stroke="#A78BFA" stroke-width="10" stroke-linecap="round"/>
  <circle cx="446" cy="188" r="10" fill="#22C55E"/>
  <circle cx="570" cy="146" r="10" fill="#F59E0B"/>
  <rect x="304" y="272" width="150" height="122" rx="22" fill="#1E293B"/>
  <rect x="486" y="272" width="150" height="122" rx="22" fill="#1E293B"/>
  <circle cx="356" cy="322" r="28" fill="#7C3AED" fill-opacity="0.22"/>
  <path d="M343 322L353 332L371 312" stroke="#A78BFA" stroke-width="8" stroke-linecap="round" stroke-linejoin="round"/>
  <circle cx="538" cy="322" r="28" fill="#0EA5E9" fill-opacity="0.2"/>
  <path d="M524 330C532 316 542 312 553 322" stroke="#38BDF8" stroke-width="8" stroke-linecap="round"/>
  <path d="M522 354H574" stroke="#475569" stroke-width="8" stroke-linecap="round"/>
  <rect x="662" y="96" width="46" height="136" rx="18" fill="#7C3AED"/>
  <rect x="662" y="248" width="46" height="146" rx="18" fill="#22C55E"/>
</svg>
