<svg width="800" height="520" viewBox="0 0 800 520" fill="none" xmlns="http://www.w3.org/2000/svg">
  <rect width="800" height="520" rx="36" fill="#FBF6EA"/>
  <rect x="28" y="28" width="744" height="464" rx="28" fill="#FFF9EF" stroke="#E3D4BA"/>
  <rect x="62" y="62" width="676" height="396" rx="28" fill="#FCF8F0" stroke="#EFE2CB"/>
  <rect x="98" y="100" width="604" height="66" rx="18" fill="#F5EAD5"/>
  <path d="M128 132H348" stroke="#8C7A66" stroke-width="12" stroke-linecap="round"/>
  <circle cx="638" cy="133" r="24" fill="#8CA383"/>
  <path d="M625 133L635 143L652 124" stroke="#FFF9EF" stroke-width="8" stroke-linecap="round" stroke-linejoin="round"/>
  <rect x="98" y="194" width="370" height="220" rx="24" fill="#FFFDF8" stroke="#EFE2CB"/>
  <path d="M132 238H418" stroke="#B0A18D" stroke-width="10" stroke-linecap="round"/>
  <path d="M132 272H392" stroke="#D1C1AC" stroke-width="10" stroke-linecap="round"/>
  <path d="M132 306H404" stroke="#D1C1AC" stroke-width="10" stroke-linecap="round"/>
  <path d="M132 340H374" stroke="#D1C1AC" stroke-width="10" stroke-linecap="round"/>
  <rect x="500" y="194" width="170" height="92" rx="20" fill="#6F835D"/>
  <text x="585" y="251" text-anchor="middle" fill="#FFF9EF" font-size="34" font-family="Arial, sans-serif" font-weight="700">Positive</text>
  <rect x="500" y="322" width="170" height="92" rx="20" fill="#C86D4B"/>
  <text x="585" y="379" text-anchor="middle" fill="#FFF9EF" font-size="34" font-family="Arial, sans-serif" font-weight="700">Negative</text>
</svg>
