<svg xmlns="http://www.w3.org/2000/svg" viewBox="0 0 640 360" role="img" aria-labelledby="title desc">
  <title id="title">Traffic Violation Detection System</title>
  <desc id="desc">Computer vision traffic monitoring interface with vehicles and detection boxes.</desc>
  <rect width="640" height="360" rx="22" fill="#111827"/>
  <path d="M0 252h640v108H0z" fill="#1f2937"/>
  <path d="M0 220h640v34H0z" fill="#374151"/>
  <path d="M68 301h112M244 301h112M420 301h112" fill="none" stroke="#f8fafc" stroke-width="10" stroke-linecap="round" stroke-dasharray="56 42"/>
  <rect x="74" y="188" width="150" height="58" rx="18" fill="#38bdf8"/>
  <path d="M102 188l24-36h72l26 36z" fill="#7dd3fc"/>
  <circle cx="114" cy="249" r="18" fill="#020617"/>
  <circle cx="188" cy="249" r="18" fill="#020617"/>
  <rect x="64" y="176" width="172" height="86" rx="10" fill="none" stroke="#22c55e" stroke-width="5"/>
  <rect x="386" y="204" width="162" height="52" rx="16" fill="#f97316"/>
  <path d="M414 204l22-32h78l34 32z" fill="#fdba74"/>
  <circle cx="426" cy="258" r="17" fill="#020617"/>
  <circle cx="510" cy="258" r="17" fill="#020617"/>
  <rect x="374" y="191" width="188" height="82" rx="10" fill="none" stroke="#ef4444" stroke-width="5"/>
  <path d="M298 46h96l34 58-48 84h-68l-48-84z" fill="#0f172a" stroke="#94a3b8" stroke-width="5"/>
  <circle cx="346" cy="82" r="16" fill="#ef4444"/>
  <circle cx="346" cy="118" r="16" fill="#facc15"/>
  <circle cx="346" cy="154" r="16" fill="#22c55e"/>
  <path d="M44 52h188M44 84h136M44 116h92" stroke="#94a3b8" stroke-width="10" stroke-linecap="round"/>
  <path d="M470 54h100M470 84h66" stroke="#94a3b8" stroke-width="10" stroke-linecap="round"/>
  <text x="44" y="154" fill="#e5e7eb" font-family="Arial, sans-serif" font-size="24" font-weight="700">OpenCV tracking</text>
  <text x="470" y="128" fill="#fecaca" font-family="Arial, sans-serif" font-size="22" font-weight="700">violation</text>
</svg>
